<mxfile host="app.diagrams.net" modified="2023-05-31T11:39:21.424Z" agent="Mozilla/5.0 (Windows NT 10.0; Win64; x64) AppleWebKit/537.36 (KHTML, like Gecko) Chrome/113.0.0.0 Safari/537.36" etag="II0PjA3BA8ziSLxOC335" version="21.3.3" type="device">
  <diagram name="Page-1" id="Kky85m9Q1DYvnpoJH5df">
    <mxGraphModel dx="1120" dy="833" grid="1" gridSize="10" guides="1" tooltips="1" connect="1" arrows="1" fold="1" page="0" pageScale="1" pageWidth="827" pageHeight="1169" math="0" shadow="0">
      <root>
        <mxCell id="0" />
        <mxCell id="1" parent="0" />
        <mxCell id="4EYe7IXE-JR7Fc2so7gF-2" value="" style="strokeWidth=1;shadow=1;dashed=0;align=center;html=1;shape=mxgraph.mockup.containers.browserWindow;rSize=0;strokeColor2=#008cff;strokeColor3=#c4c4c4;mainText=,;recursiveResize=0;fillColor=#f5f5f5;strokeColor=#666666;fontColor=#333333;" parent="1" vertex="1">
          <mxGeometry x="20" y="20" width="1650" height="1170" as="geometry" />
        </mxCell>
        <mxCell id="4EYe7IXE-JR7Fc2so7gF-3" value="Pico" style="strokeWidth=1;shadow=0;dashed=0;align=center;html=1;shape=mxgraph.mockup.containers.anchor;fontSize=17;fontColor=#666666;align=left;whiteSpace=wrap;" parent="4EYe7IXE-JR7Fc2so7gF-2" vertex="1">
          <mxGeometry x="60" y="12" width="110" height="26" as="geometry" />
        </mxCell>
        <mxCell id="4EYe7IXE-JR7Fc2so7gF-4" value="https://www.pico.fr/signin/lost" style="strokeWidth=1;shadow=0;dashed=0;align=center;html=1;shape=mxgraph.mockup.containers.anchor;rSize=0;fontSize=17;fontColor=#666666;align=left;" parent="4EYe7IXE-JR7Fc2so7gF-2" vertex="1">
          <mxGeometry x="130" y="60" width="250" height="26" as="geometry" />
        </mxCell>
        <mxCell id="bM7IQYcvUBJuGgp6gzmL-14" style="edgeStyle=orthogonalEdgeStyle;rounded=0;orthogonalLoop=1;jettySize=auto;html=1;exitX=0;exitY=0.75;exitDx=0;exitDy=0;" parent="4EYe7IXE-JR7Fc2so7gF-2" source="bM7IQYcvUBJuGgp6gzmL-2" target="4EYe7IXE-JR7Fc2so7gF-2" edge="1">
          <mxGeometry relative="1" as="geometry" />
        </mxCell>
        <mxCell id="bM7IQYcvUBJuGgp6gzmL-2" value="" style="rounded=1;whiteSpace=wrap;html=1;fillColor=none;strokeColor=#000000;" parent="4EYe7IXE-JR7Fc2so7gF-2" vertex="1">
          <mxGeometry x="521.25" y="250" width="528.75" height="540" as="geometry" />
        </mxCell>
        <mxCell id="bM7IQYcvUBJuGgp6gzmL-3" value="&lt;font color=&quot;#000000&quot; style=&quot;font-size: 20px;&quot;&gt;PICO&lt;/font&gt;" style="ellipse;shape=cloud;whiteSpace=wrap;html=1;fillColor=#d0cee2;strokeColor=#56517e;" parent="4EYe7IXE-JR7Fc2so7gF-2" vertex="1">
          <mxGeometry x="701.88" y="286.87" width="167.5" height="80" as="geometry" />
        </mxCell>
        <mxCell id="bM7IQYcvUBJuGgp6gzmL-6" style="edgeStyle=orthogonalEdgeStyle;rounded=0;orthogonalLoop=1;jettySize=auto;html=1;" parent="4EYe7IXE-JR7Fc2so7gF-2" source="bM7IQYcvUBJuGgp6gzmL-2" target="bM7IQYcvUBJuGgp6gzmL-2" edge="1">
          <mxGeometry relative="1" as="geometry" />
        </mxCell>
        <mxCell id="bM7IQYcvUBJuGgp6gzmL-7" value="Adresse mail" style="strokeWidth=1;shadow=0;dashed=0;align=center;html=1;shape=mxgraph.mockup.text.textBox;fontColor=#666666;align=left;fontSize=17;spacingLeft=4;spacingTop=-3;whiteSpace=wrap;strokeColor=#000000;mainText=;fillColor=#FFFFFF;" parent="4EYe7IXE-JR7Fc2so7gF-2" vertex="1">
          <mxGeometry x="643.12" y="450" width="285" height="50" as="geometry" />
        </mxCell>
        <mxCell id="bM7IQYcvUBJuGgp6gzmL-8" value="Connexion" style="strokeWidth=1;shadow=0;dashed=0;align=center;html=1;shape=mxgraph.mockup.buttons.button;strokeColor=#666666;fontColor=#ffffff;mainText=;buttonStyle=round;fontSize=17;fontStyle=1;fillColor=#008cff;whiteSpace=wrap;" parent="4EYe7IXE-JR7Fc2so7gF-2" vertex="1">
          <mxGeometry x="710.63" y="620" width="150" height="40" as="geometry" />
        </mxCell>
        <mxCell id="Gx3RP_MjWu5_mXVyP409-1" value="Mot de passe" style="strokeWidth=1;shadow=0;dashed=0;align=center;html=1;shape=mxgraph.mockup.text.textBox;fontColor=#666666;align=left;fontSize=17;spacingLeft=4;spacingTop=-3;whiteSpace=wrap;strokeColor=#000000;mainText=;fillColor=#FFFFFF;" parent="4EYe7IXE-JR7Fc2so7gF-2" vertex="1">
          <mxGeometry x="643.13" y="520" width="285" height="50" as="geometry" />
        </mxCell>
        <mxCell id="Gx3RP_MjWu5_mXVyP409-3" value="&lt;font style=&quot;font-size: 24px;&quot; face=&quot;Verdana&quot; color=&quot;#000000&quot;&gt;Veuillez vous connecter&lt;/font&gt;" style="text;strokeColor=none;align=center;fillColor=none;html=1;verticalAlign=middle;whiteSpace=wrap;rounded=0;" parent="4EYe7IXE-JR7Fc2so7gF-2" vertex="1">
          <mxGeometry x="635.63" y="376.87" width="300" height="50" as="geometry" />
        </mxCell>
        <mxCell id="Gx3RP_MjWu5_mXVyP409-6" value="&lt;font style=&quot;font-size: 14px;&quot; face=&quot;Verdana&quot; color=&quot;#000000&quot;&gt;&lt;u&gt;Mot de passe oubliÃ© ?&lt;/u&gt;&lt;/font&gt;" style="text;strokeColor=none;align=center;fillColor=none;html=1;verticalAlign=middle;whiteSpace=wrap;rounded=0;" parent="4EYe7IXE-JR7Fc2so7gF-2" vertex="1">
          <mxGeometry x="635.63" y="570" width="300" height="50" as="geometry" />
        </mxCell>
        <mxCell id="Gx3RP_MjWu5_mXVyP409-7" value="" style="endArrow=none;html=1;rounded=0;entryX=1.012;entryY=0.773;entryDx=0;entryDy=0;entryPerimeter=0;" parent="4EYe7IXE-JR7Fc2so7gF-2" target="bM7IQYcvUBJuGgp6gzmL-2" edge="1" source="kSFOPe4VCN0ySymrgSeC-1">
          <mxGeometry width="50" height="50" relative="1" as="geometry">
            <mxPoint x="521.25" y="670" as="sourcePoint" />
            <mxPoint x="571.25" y="620" as="targetPoint" />
          </mxGeometry>
        </mxCell>
        <mxCell id="kSFOPe4VCN0ySymrgSeC-2" value="" style="endArrow=none;html=1;rounded=0;entryX=1.012;entryY=0.773;entryDx=0;entryDy=0;entryPerimeter=0;" edge="1" parent="4EYe7IXE-JR7Fc2so7gF-2" target="kSFOPe4VCN0ySymrgSeC-1">
          <mxGeometry width="50" height="50" relative="1" as="geometry">
            <mxPoint x="541.25" y="690" as="sourcePoint" />
            <mxPoint x="1076" y="687" as="targetPoint" />
          </mxGeometry>
        </mxCell>
        <mxCell id="kSFOPe4VCN0ySymrgSeC-1" value="" style="line;strokeWidth=4;html=1;perimeter=backbonePerimeter;points=[];outlineConnect=0;strokeColor=#000000;" vertex="1" parent="4EYe7IXE-JR7Fc2so7gF-2">
          <mxGeometry x="521.24" y="680" width="528.75" height="10" as="geometry" />
        </mxCell>
        <mxCell id="kSFOPe4VCN0ySymrgSeC-3" value="Inscription" style="strokeWidth=1;shadow=0;dashed=0;align=center;html=1;shape=mxgraph.mockup.buttons.button;strokeColor=#666666;fontColor=#ffffff;mainText=;buttonStyle=round;fontSize=17;fontStyle=1;fillColor=#008cff;whiteSpace=wrap;" vertex="1" parent="4EYe7IXE-JR7Fc2so7gF-2">
          <mxGeometry x="710.63" y="730" width="150" height="40" as="geometry" />
        </mxCell>
      </root>
    </mxGraphModel>
  </diagram>
</mxfile>
